# This file uses centimeters as units for non-parametric coordinates.

mtllib gaspump.mtl
g default
v -1.036212 1.833903 -4.599797
v -1.171108 1.585437 -4.599797
v -1.133557 1.305744 -4.599797
v -0.937901 1.101657 -4.599797
v -0.658875 1.051131 -4.599797
v -0.403058 1.173465 -4.599797
v -0.268162 1.421931 -4.599797
v -0.305713 1.701624 -4.599797
v -0.501368 1.905711 -4.599797
v -0.780394 1.956237 -4.599797
v -1.321800 2.131798 -4.388796
v -1.578388 1.659187 -4.388796
v -1.506961 1.127179 -4.388796
v -1.134802 0.738983 -4.388796
v -0.604064 0.642877 -4.388796
v -0.117469 0.875569 -4.388796
v 0.139118 1.348181 -4.388796
v 0.067691 1.880188 -4.388796
v -0.304467 2.268384 -4.388796
v -0.835206 2.364491 -4.388796
v -1.548445 2.368209 -4.060154
v -1.901607 1.717716 -4.060154
v -1.803296 0.985470 -4.060154
v -1.291064 0.451163 -4.060154
v -0.560565 0.318884 -4.060154
v 0.109175 0.639159 -4.060154
v 0.462338 1.289652 -4.060154
v 0.364027 2.021898 -4.060154
v -0.148206 2.556204 -4.060154
v -0.878705 2.688483 -4.060154
v -1.693959 2.519994 -3.646042
v -2.109127 1.755293 -3.646042
v -1.993555 0.894486 -3.646042
v -1.391390 0.266372 -3.646042
v -0.532637 0.110869 -3.646042
v 0.254690 0.487373 -3.646042
v 0.669857 1.252074 -3.646042
v 0.554286 2.112881 -3.646042
v -0.047880 2.740996 -3.646042
v -0.906633 2.896499 -3.646042
v -1.696412 2.545194 -0.823813
v -2.108933 1.765071 -0.823813
v -1.990790 0.885106 -0.823813
v -1.387108 0.241418 -0.823813
v -0.528475 0.079872 -0.823813
v 0.257142 0.462174 -0.823813
v 0.669663 1.242297 -0.823813
v 0.551520 2.122261 -0.823813
v -0.052161 2.765950 -0.823813
v -0.910795 2.927496 -0.823813
v -1.693959 2.519994 1.855192
v -2.109127 1.755293 1.855192
v -1.993555 0.894486 1.855192
v -1.391390 0.266372 1.855192
v -0.532637 0.110869 1.855192
v 0.254690 0.487373 1.855192
v 0.669857 1.252074 1.855192
v 0.554286 2.112881 1.855192
v -0.047880 2.740996 1.855192
v -0.906633 2.896499 1.855192
v -1.548445 2.368209 2.269305
v -1.901607 1.717716 2.269305
v -1.803296 0.985470 2.269305
v -1.291064 0.451163 2.269305
v -0.560565 0.318884 2.269305
v 0.109175 0.639159 2.269305
v 0.462338 1.289652 2.269305
v 0.364027 2.021898 2.269305
v -0.148206 2.556204 2.269305
v -0.878705 2.688483 2.269305
v -1.321800 2.131798 2.597946
v -1.578388 1.659187 2.597946
v -1.506961 1.127179 2.597946
v -1.134802 0.738983 2.597946
v -0.604064 0.642877 2.597946
v -0.117469 0.875569 2.597946
v 0.139118 1.348181 2.597946
v 0.067691 1.880188 2.597946
v -0.304467 2.268384 2.597946
v -0.835206 2.364491 2.597946
v -1.036212 1.833903 2.808947
v -1.171108 1.585437 2.808947
v -1.133557 1.305744 2.808947
v -0.937901 1.101657 2.808947
v -0.658875 1.051131 2.808947
v -0.403058 1.173465 2.808947
v -0.268162 1.421931 2.808947
v -0.305713 1.701624 2.808947
v -0.501368 1.905711 2.808947
v -0.780394 1.956237 2.808947
v -0.719635 1.503684 -4.672503
v -0.719635 1.503684 2.881653
v -2.109817 1.765620 0.617354
v -1.697134 2.546844 0.617354
v -0.911079 2.929618 0.617354
v -0.051900 2.767732 0.617354
v 0.552228 2.123024 0.617354
v 0.670547 1.241748 0.617354
v 0.257864 0.460523 0.617354
v -0.528190 0.077750 0.617354
v -1.387370 0.239635 0.617354
v -1.991498 0.884344 0.617354
v -2.109839 1.765946 -2.300796
v -1.697235 2.547694 -2.300796
v -0.911220 2.930665 -2.300796
v -0.052027 2.768578 -2.300796
v 0.552163 2.123344 -2.300796
v 0.670569 1.241422 -2.300796
v 0.257965 0.459674 -2.300796
v -0.528049 0.076703 -2.300796
v -1.387243 0.238789 -2.300796
v -1.991433 0.884023 -2.300796
vt 0.539386 0.946414
vt 0.502903 0.941301
vt 0.503045 0.888440
vt 0.566769 0.897061
vt 0.466386 0.947253
vt 0.438919 0.898356
vt 0.437832 0.965171
vt 0.384277 0.925407
vt 0.425836 0.992578
vt 0.347468 0.969393
vt 0.442641 1.028176
vt 0.336837 1.028490
vt 0.503195 1.059186
vt 0.355629 1.097110
vt 0.563401 1.028400
vt 0.669557 1.027813
vt 0.650922 1.094815
vt 0.579794 0.993404
vt 0.658327 0.969318
vt 0.568058 0.963633
vt 0.621302 0.924094
vt 0.503204 0.837660
vt 0.587947 0.846950
vt 0.418374 0.847407
vt 0.341532 0.879304
vt 0.280878 0.932665
vt 0.243909 1.003659
vt 0.228063 1.093512
vt 0.762407 1.003421
vt 0.777127 1.087187
vt 0.724339 0.931585
vt 0.664962 0.878809
vt 0.502682 0.787605
vt 0.603750 0.795775
vt 0.402951 0.796055
vt 0.307655 0.829066
vt 0.222676 0.886825
vt 0.163636 0.961597
vt 0.114363 1.054296
vt 0.841005 0.958035
vt 0.891664 1.052691
vt 0.780113 0.884761
vt 0.702320 0.828851
vt 0.502579 0.640468
vt 0.634817 0.650915
vt 0.368874 0.651348
vt 0.242815 0.675038
vt 0.130187 0.711507
vt 0.012420 0.759875
vt -0.108592 0.822077
vt 0.998129 0.758317
vt 1.111337 0.819090
vt 0.879465 0.708821
vt 0.756833 0.674856
vt 0.645702 0.491462
vt 0.503114 0.491858
vt 0.502117 0.345926
vt 0.632850 0.336012
vt 0.360189 0.492471
vt 0.368658 0.339086
vt 0.219719 0.491970
vt 0.244506 0.313833
vt 0.082204 0.490917
vt 0.133510 0.276318
vt -0.041724 0.489515
vt 0.017726 0.226609
vt -0.166980 0.488311
vt -0.101462 0.162557
vt 1.183153 0.485467
vt 1.040446 0.487331
vt 0.991993 0.222889
vt 1.094929 0.164573
vt 0.916075 0.488980
vt 0.874417 0.275377
vt 0.786775 0.490503
vt 0.753420 0.311292
vt 0.602126 0.204372
vt 0.500250 0.214896
vt 0.501181 0.163499
vt 0.586067 0.153208
vt 0.401630 0.201911
vt 0.416954 0.151832
vt 0.305922 0.171188
vt 0.339608 0.120814
vt 0.220374 0.114916
vt 0.278240 0.068449
vt 0.159983 0.041332
vt 0.240211 -0.001752
vt 0.109898 -0.050784
vt 0.223376 -0.091289
vt 0.897687 -0.058138
vt 0.837333 0.045198
vt 0.760887 -0.003156
vt 0.778977 -0.089824
vt 0.777991 0.115760
vt 0.722456 0.068442
vt 0.700555 0.170836
vt 0.663099 0.120999
vt 0.501080 0.112014
vt 0.564717 0.102969
vt 0.437160 0.101450
vt 0.382175 0.074704
vt 0.344837 0.031276
vt 0.333426 -0.027448
vt 0.351501 -0.096127
vt 0.668084 -0.028242
vt 0.650239 -0.095930
vt 0.656571 0.030439
vt 0.619462 0.075746
vt 0.500949 0.058785
vt 0.537420 0.053526
vt 0.464398 0.052750
vt 0.435655 0.034903
vt 0.423392 0.007639
vt 0.439969 -0.027946
vt 0.500654 -0.059258
vt 0.561334 -0.028631
vt 0.577839 0.006386
vt 0.566105 0.036221
vt 0.502902 0.998023
vt 0.500729 0.001926
vn -0.276270 0.291438 -0.915827
vn -0.394012 0.072763 -0.916221
vn -0.623483 0.114997 -0.773333
vn -0.437034 0.460697 -0.772502
vn -0.360866 -0.174113 -0.916221
vn -0.571072 -0.275377 -0.773333
vn -0.189616 -0.353987 -0.915827
vn -0.300043 -0.559656 -0.772502
vn 0.053509 -0.398550 -0.915584
vn 0.084581 -0.629982 -0.771990
vn 0.276270 -0.291437 -0.915827
vn 0.437035 -0.460697 -0.772502
vn 0.394011 -0.072763 -0.916221
vn 0.623484 -0.114997 -0.773333
vn 0.360866 0.174112 -0.916221
vn 0.571072 0.275377 -0.773333
vn 0.189616 0.353987 -0.915827
vn 0.300043 0.559656 -0.772502
vn -0.053509 0.398550 -0.915584
vn -0.084581 0.629982 -0.771990
vn -0.816286 0.150450 -0.557711
vn -0.571856 0.602569 -0.556678
vn -0.747697 -0.360429 -0.557711
vn -0.392670 -0.732066 -0.556678
vn 0.110598 -0.823763 -0.556043
vn 0.571857 -0.602569 -0.556678
vn 0.816287 -0.150450 -0.557711
vn 0.747696 0.360429 -0.557711
vn 0.392670 0.732065 -0.556678
vn -0.110598 0.823762 -0.556043
vn -0.876385 0.161271 -0.453807
vn -0.614082 0.646477 -0.452736
vn -0.802813 -0.386719 -0.453807
vn -0.421819 -0.785557 -0.452735
vn 0.118691 -0.884047 -0.452076
vn 0.614083 -0.646477 -0.452736
vn 0.876385 -0.161271 -0.453807
vn 0.802812 0.386719 -0.453807
vn 0.421819 0.785556 -0.452736
vn -0.118691 0.884047 -0.452077
vn -0.694338 0.719478 -0.015710
vn -0.984351 0.176177 -0.003917
vn -0.984267 0.176681 -0.001441
vn -0.693816 0.720121 -0.006700
vn -0.903023 -0.429574 -0.003917
vn -0.902810 -0.430038 -0.001441
vn -0.479977 -0.877141 -0.015710
vn -0.479304 -0.877623 -0.006700
vn 0.133030 -0.990842 -0.023119
vn 0.133059 -0.991058 -0.009943
vn 0.694338 -0.719478 -0.015710
vn 0.693816 -0.720121 -0.006700
vn 0.984351 -0.176177 -0.003917
vn 0.984267 -0.176681 -0.001441
vn 0.903023 0.429574 -0.003917
vn 0.902810 0.430038 -0.001441
vn 0.479977 0.877140 -0.015710
vn 0.479304 0.877623 -0.006700
vn -0.133030 0.990842 -0.023119
vn -0.133059 0.991058 -0.009943
vn -0.696543 0.717514 -0.001145
vn -0.984670 0.174425 -0.000738
vn -0.984257 0.176735 0.001519
vn -0.693749 0.720182 0.007059
vn -0.903794 -0.427968 -0.000738
vn -0.902786 -0.430088 0.001519
vn -0.482623 -0.875828 -0.001145
vn -0.479224 -0.877664 0.007059
vn 0.133065 -0.991106 -0.001400
vn 0.133058 -0.991053 0.010473
vn 0.696543 -0.717514 -0.001145
vn 0.693750 -0.720182 0.007059
vn 0.984670 -0.174425 -0.000738
vn 0.984257 -0.176735 0.001519
vn 0.903793 0.427968 -0.000738
vn 0.902786 0.430088 0.001519
vn 0.482623 0.875828 -0.001145
vn 0.479224 0.877664 0.007059
vn -0.133065 0.991106 -0.001400
vn -0.133058 0.991053 0.010473
vn -0.614082 0.646477 0.452736
vn -0.876385 0.161271 0.453807
vn -0.816286 0.150450 0.557711
vn -0.571857 0.602569 0.556678
vn -0.802812 -0.386719 0.453807
vn -0.747696 -0.360429 0.557711
vn -0.421819 -0.785557 0.452735
vn -0.392670 -0.732066 0.556678
vn 0.118691 -0.884047 0.452076
vn 0.110598 -0.823763 0.556043
vn 0.614083 -0.646477 0.452736
vn 0.571857 -0.602569 0.556678
vn 0.876385 -0.161271 0.453807
vn 0.816287 -0.150450 0.557711
vn 0.802812 0.386719 0.453807
vn 0.747696 0.360429 0.557711
vn 0.421819 0.785556 0.452736
vn 0.392670 0.732066 0.556678
vn -0.118691 0.884047 0.452077
vn -0.110598 0.823762 0.556043
vn -0.623484 0.114997 0.773333
vn -0.437035 0.460697 0.772502
vn -0.571072 -0.275377 0.773333
vn -0.300043 -0.559656 0.772502
vn 0.084581 -0.629982 0.771990
vn 0.437035 -0.460697 0.772502
vn 0.623484 -0.114997 0.773333
vn 0.571072 0.275377 0.773333
vn 0.300043 0.559657 0.772502
vn -0.084581 0.629982 0.771990
vn -0.394012 0.072763 0.916221
vn -0.276270 0.291438 0.915827
vn -0.360866 -0.174113 0.916221
vn -0.189616 -0.353987 0.915827
vn 0.053509 -0.398550 0.915585
vn 0.276270 -0.291438 0.915827
vn 0.394011 -0.072763 0.916221
vn 0.360866 0.174113 0.916221
vn 0.189616 0.353987 0.915827
vn -0.053509 0.398550 0.915584
vn 0.000000 -0.000000 -1.000000
vn -0.000000 0.000000 1.000000
vn -0.984345 0.176206 0.004126
vn -0.694291 0.719504 0.016548
vn -0.133026 0.990813 0.024354
vn 0.479925 0.877153 0.016548
vn 0.903009 0.429601 0.004127
vn 0.984345 -0.176206 0.004127
vn 0.694291 -0.719504 0.016548
vn 0.133026 -0.990813 0.024354
vn -0.479925 -0.877153 0.016549
vn -0.903009 -0.429601 0.004127
vn -0.984696 0.174278 0.000828
vn -0.696720 0.717341 0.001555
vn -0.133065 0.991105 0.002012
vn 0.482839 0.875708 0.001555
vn 0.903857 0.427833 0.000829
vn 0.984696 -0.174278 0.000829
vn 0.696720 -0.717341 0.001555
vn 0.133066 -0.991105 0.002012
vn -0.482839 -0.875708 0.001555
vn -0.903857 -0.427833 0.000828
s 1
g polySurface6 pSphere3
usemtl lambert6SG
f 1/1/1 2/2/2 12/3/3 11/4/4
f 2/2/2 3/5/5 13/6/6 12/3/3
f 3/5/5 4/7/7 14/8/8 13/6/6
f 4/7/7 5/9/9 15/10/10 14/8/8
f 5/9/9 6/11/11 16/12/12 15/10/10
f 6/11/11 7/13/13 17/14/14 16/12/12
f 7/13/13 8/15/15 18/16/16 17/17/14
f 8/15/15 9/18/17 19/19/18 18/16/16
f 9/18/17 10/20/19 20/21/20 19/19/18
f 10/20/19 1/1/1 11/4/4 20/21/20
f 11/4/4 12/3/3 22/22/21 21/23/22
f 12/3/3 13/6/6 23/24/23 22/22/21
f 13/6/6 14/8/8 24/25/24 23/24/23
f 14/8/8 15/10/10 25/26/25 24/25/24
f 15/10/10 16/12/12 26/27/26 25/26/25
f 16/12/12 17/14/14 27/28/27 26/27/26
f 17/17/14 18/16/16 28/29/28 27/30/27
f 18/16/16 19/19/18 29/31/29 28/29/28
f 19/19/18 20/21/20 30/32/30 29/31/29
f 20/21/20 11/4/4 21/23/22 30/32/30
f 21/23/22 22/22/21 32/33/31 31/34/32
f 22/22/21 23/24/23 33/35/33 32/33/31
f 23/24/23 24/25/24 34/36/34 33/35/33
f 24/25/24 25/26/25 35/37/35 34/36/34
f 25/26/25 26/27/26 36/38/36 35/37/35
f 26/27/26 27/28/27 37/39/37 36/38/36
f 27/30/27 28/29/28 38/40/38 37/41/37
f 28/29/28 29/31/29 39/42/39 38/40/38
f 29/31/29 30/32/30 40/43/40 39/42/39
f 30/32/30 21/23/22 31/34/32 40/43/40
s 2
f 31/34/41 32/33/42 103/44/43 104/45/44
f 32/33/42 33/35/45 112/46/46 103/44/43
f 33/35/45 34/36/47 111/47/48 112/46/46
f 34/36/47 35/37/49 110/48/50 111/47/48
f 35/37/49 36/38/51 109/49/52 110/48/50
f 36/38/51 37/39/53 108/50/54 109/49/52
f 37/41/53 38/40/55 107/51/56 108/52/54
f 38/40/55 39/42/57 106/53/58 107/51/56
f 39/42/57 40/43/59 105/54/60 106/53/58
f 40/43/59 31/34/41 104/45/44 105/54/60
s 3
f 41/55/61 42/56/62 93/57/63 94/58/64
f 42/56/62 43/59/65 102/60/66 93/57/63
f 43/59/65 44/61/67 101/62/68 102/60/66
f 44/61/67 45/63/69 100/64/70 101/62/68
f 45/63/69 46/65/71 99/66/72 100/64/70
f 46/65/71 47/67/73 98/68/74 99/66/72
f 47/69/73 48/70/75 97/71/76 98/72/74
f 48/70/75 49/73/77 96/74/78 97/71/76
f 49/73/77 50/75/79 95/76/80 96/74/78
f 50/75/79 41/55/61 94/58/64 95/76/80
s 4
f 51/77/81 52/78/82 62/79/83 61/80/84
f 52/78/82 53/81/85 63/82/86 62/79/83
f 53/81/85 54/83/87 64/84/88 63/82/86
f 54/83/87 55/85/89 65/86/90 64/84/88
f 55/85/89 56/87/91 66/88/92 65/86/90
f 56/87/91 57/89/93 67/90/94 66/88/92
f 57/91/93 58/92/95 68/93/96 67/94/94
f 58/92/95 59/95/97 69/96/98 68/93/96
f 59/95/97 60/97/99 70/98/100 69/96/98
f 60/97/99 51/77/81 61/80/84 70/98/100
f 61/80/84 62/79/83 72/99/101 71/100/102
f 62/79/83 63/82/86 73/101/103 72/99/101
f 63/82/86 64/84/88 74/102/104 73/101/103
f 64/84/88 65/86/90 75/103/105 74/102/104
f 65/86/90 66/88/92 76/104/106 75/103/105
f 66/88/92 67/90/94 77/105/107 76/104/106
f 67/94/94 68/93/96 78/106/108 77/107/107
f 68/93/96 69/96/98 79/108/109 78/106/108
f 69/96/98 70/98/100 80/109/110 79/108/109
f 70/98/100 61/80/84 71/100/102 80/109/110
f 71/100/102 72/99/101 82/110/111 81/111/112
f 72/99/101 73/101/103 83/112/113 82/110/111
f 73/101/103 74/102/104 84/113/114 83/112/113
f 74/102/104 75/103/105 85/114/115 84/113/114
f 75/103/105 76/104/106 86/115/116 85/114/115
f 76/104/106 77/105/107 87/116/117 86/115/116
f 77/107/107 78/106/108 88/117/118 87/116/117
f 78/106/108 79/108/109 89/118/119 88/117/118
f 79/108/109 80/109/110 90/119/120 89/118/119
f 80/109/110 71/100/102 81/111/112 90/119/120
s 1
f 2/2/2 1/1/1 91/120/121
f 3/5/5 2/2/2 91/120/121
f 4/7/7 3/5/5 91/120/121
f 5/9/9 4/7/7 91/120/121
f 6/11/11 5/9/9 91/120/121
f 7/13/13 6/11/11 91/120/121
f 8/15/15 7/13/13 91/120/121
f 9/18/17 8/15/15 91/120/121
f 10/20/19 9/18/17 91/120/121
f 1/1/1 10/20/19 91/120/121
s 4
f 81/111/112 82/110/111 92/121/122
f 82/110/111 83/112/113 92/121/122
f 83/112/113 84/113/114 92/121/122
f 84/113/114 85/114/115 92/121/122
f 85/114/115 86/115/116 92/121/122
f 86/115/116 87/116/117 92/121/122
f 87/116/117 88/117/118 92/121/122
f 88/117/118 89/118/119 92/121/122
f 89/118/119 90/119/120 92/121/122
f 90/119/120 81/111/112 92/121/122
s 3
f 94/58/64 93/57/63 52/78/123 51/77/124
f 95/76/80 94/58/64 51/77/124 60/97/125
f 96/74/78 95/76/80 60/97/125 59/95/126
f 97/71/76 96/74/78 59/95/126 58/92/127
f 98/72/74 97/71/76 58/92/127 57/91/128
f 99/66/72 98/68/74 57/89/128 56/87/129
f 100/64/70 99/66/72 56/87/129 55/85/130
f 101/62/68 100/64/70 55/85/130 54/83/131
f 102/60/66 101/62/68 54/83/131 53/81/132
f 93/57/63 102/60/66 53/81/132 52/78/123
s 2
f 104/45/44 103/44/43 42/56/133 41/55/134
f 105/54/60 104/45/44 41/55/134 50/75/135
f 106/53/58 105/54/60 50/75/135 49/73/136
f 107/51/56 106/53/58 49/73/136 48/70/137
f 108/52/54 107/51/56 48/70/137 47/69/138
f 109/49/52 108/50/54 47/67/138 46/65/139
f 110/48/50 109/49/52 46/65/139 45/63/140
f 111/47/48 110/48/50 45/63/140 44/61/141
f 112/46/46 111/47/48 44/61/141 43/59/142
f 103/44/43 112/46/46 43/59/142 42/56/133
