# This file uses centimeters as units for non-parametric coordinates.

mtllib gasstation.mtl
g default
v -3.877935 1.566158 -4.599797
v -4.106242 1.732917 -4.599797
v -4.388445 1.732916 -4.599797
v -4.616752 1.566158 -4.599797
v -4.703957 1.296336 -4.599797
v -4.616752 1.026515 -4.599797
v -4.388445 0.859757 -4.599797
v -4.106242 0.859757 -4.599797
v -3.877935 1.026515 -4.599797
v -3.790730 1.296336 -4.599797
v -3.544687 1.809567 -4.388796
v -3.978953 2.126761 -4.388796
v -4.515734 2.126761 -4.388796
v -4.950000 1.809567 -4.388796
v -5.115874 1.296336 -4.388796
v -4.950000 0.783106 -4.388796
v -4.515734 0.465912 -4.388796
v -3.978953 0.465912 -4.388796
v -3.544688 0.783106 -4.388796
v -3.378813 1.296336 -4.388796
v -3.280220 2.002738 -4.060154
v -3.877935 2.439318 -4.060154
v -4.616752 2.439318 -4.060154
v -5.214467 2.002738 -4.060154
v -5.442774 1.296336 -4.060154
v -5.214467 0.589935 -4.060154
v -4.616752 0.153355 -4.060154
v -3.877935 0.153355 -4.060154
v -3.280220 0.589935 -4.060154
v -3.051914 1.296336 -4.060154
v -3.110422 2.126761 -3.646042
v -3.813078 2.639992 -3.646042
v -4.681609 2.639991 -3.646042
v -5.384265 2.126761 -3.646042
v -5.652656 1.296336 -3.646042
v -5.384265 0.465912 -3.646042
v -4.681609 -0.047318 -3.646042
v -3.813078 -0.047318 -3.646042
v -3.110422 0.465912 -3.646042
v -2.842031 1.296336 -3.646042
v -3.085120 2.125838 -0.823813
v -3.803414 2.638499 -0.823813
v -4.691274 2.638499 -0.823813
v -5.409567 2.125838 -0.823813
v -5.683931 1.296336 -0.823813
v -5.409567 0.466835 -0.823813
v -4.691273 -0.045826 -0.823813
v -3.803414 -0.045826 -0.823813
v -3.085120 0.466835 -0.823813
v -2.810756 1.296336 -0.823813
v -3.110422 2.126761 1.855192
v -3.813078 2.639992 1.855192
v -4.681609 2.639991 1.855192
v -5.384265 2.126761 1.855192
v -5.652656 1.296336 1.855192
v -5.384265 0.465912 1.855192
v -4.681609 -0.047318 1.855192
v -3.813078 -0.047318 1.855192
v -3.110422 0.465912 1.855192
v -2.842031 1.296336 1.855192
v -3.280220 2.002738 2.269305
v -3.877935 2.439318 2.269305
v -4.616752 2.439318 2.269305
v -5.214467 2.002738 2.269305
v -5.442774 1.296336 2.269305
v -5.214467 0.589935 2.269305
v -4.616752 0.153355 2.269305
v -3.877935 0.153355 2.269305
v -3.280220 0.589935 2.269305
v -3.051914 1.296336 2.269305
v -3.544687 1.809567 2.597946
v -3.978953 2.126761 2.597946
v -4.515734 2.126761 2.597946
v -4.950000 1.809567 2.597946
v -5.115874 1.296336 2.597946
v -4.950000 0.783106 2.597946
v -4.515734 0.465912 2.597946
v -3.978953 0.465912 2.597946
v -3.544688 0.783106 2.597946
v -3.378813 1.296336 2.597946
v -3.877935 1.566158 2.808947
v -4.106242 1.732917 2.808947
v -4.388445 1.732916 2.808947
v -4.616752 1.566158 2.808947
v -4.703957 1.296336 2.808947
v -4.616752 1.026515 2.808947
v -4.388445 0.859757 2.808947
v -4.106242 0.859757 2.808947
v -3.877935 1.026515 2.808947
v -3.790730 1.296336 2.808947
v -4.247344 1.296336 -4.672503
v -4.247344 1.296336 2.881653
v -3.802752 2.639302 0.617354
v -3.083388 2.126335 0.617354
v -2.808616 1.296336 0.617354
v -3.083388 0.466338 0.617354
v -3.802752 -0.046629 0.617354
v -4.691935 -0.046629 0.617354
v -5.411299 0.466338 0.617354
v -5.686072 1.296336 0.617354
v -5.411299 2.126335 0.617354
v -4.691935 2.639302 0.617354
v -3.802426 2.639280 -2.300796
v -3.082533 2.126321 -2.300796
v -2.807559 1.296336 -2.300796
v -3.082534 0.466352 -2.300796
v -3.802426 -0.046607 -2.300796
v -4.692261 -0.046607 -2.300796
v -5.412154 0.466352 -2.300796
v -5.687128 1.296336 -2.300796
v -5.412154 2.126321 -2.300796
v -4.692262 2.639280 -2.300796
vt 0.000000 0.100000
vt 0.100000 0.100000
vt 0.200000 0.100000
vt 0.300000 0.100000
vt 0.400000 0.100000
vt 0.500000 0.100000
vt 0.600000 0.100000
vt 0.700000 0.100000
vt 0.800000 0.100000
vt 0.900000 0.100000
vt 1.000000 0.100000
vt 0.000000 0.200000
vt 0.100000 0.200000
vt 0.200000 0.200000
vt 0.300000 0.200000
vt 0.400000 0.200000
vt 0.500000 0.200000
vt 0.600000 0.200000
vt 0.700000 0.200000
vt 0.800000 0.200000
vt 0.900000 0.200000
vt 1.000000 0.200000
vt 0.000000 0.300000
vt 0.100000 0.300000
vt 0.200000 0.300000
vt 0.300000 0.300000
vt 0.400000 0.300000
vt 0.500000 0.300000
vt 0.600000 0.300000
vt 0.700000 0.300000
vt 0.800000 0.300000
vt 0.900000 0.300000
vt 1.000000 0.300000
vt 0.000000 0.400000
vt 0.100000 0.400000
vt 0.200000 0.400000
vt 0.300000 0.400000
vt 0.400000 0.400000
vt 0.500000 0.400000
vt 0.600000 0.400000
vt 0.700000 0.400000
vt 0.800000 0.400000
vt 0.900000 0.400000
vt 1.000000 0.400000
vt 0.000000 0.500000
vt 0.100000 0.500000
vt 0.200000 0.500000
vt 0.300000 0.500000
vt 0.400000 0.500000
vt 0.500000 0.500000
vt 0.600000 0.500000
vt 0.700000 0.500000
vt 0.800000 0.500000
vt 0.900000 0.500000
vt 1.000000 0.500000
vt 0.000000 0.600000
vt 0.100000 0.600000
vt 0.200000 0.600000
vt 0.300000 0.600000
vt 0.400000 0.600000
vt 0.500000 0.600000
vt 0.600000 0.600000
vt 0.700000 0.600000
vt 0.800000 0.600000
vt 0.900000 0.600000
vt 1.000000 0.600000
vt 0.000000 0.700000
vt 0.100000 0.700000
vt 0.200000 0.700000
vt 0.300000 0.700000
vt 0.400000 0.700000
vt 0.500000 0.700000
vt 0.600000 0.700000
vt 0.700000 0.700000
vt 0.800000 0.700000
vt 0.900000 0.700000
vt 1.000000 0.700000
vt 0.000000 0.800000
vt 0.100000 0.800000
vt 0.200000 0.800000
vt 0.300000 0.800000
vt 0.400000 0.800000
vt 0.500000 0.800000
vt 0.600000 0.800000
vt 0.700000 0.800000
vt 0.800000 0.800000
vt 0.900000 0.800000
vt 1.000000 0.800000
vt 0.000000 0.900000
vt 0.100000 0.900000
vt 0.200000 0.900000
vt 0.300000 0.900000
vt 0.400000 0.900000
vt 0.500000 0.900000
vt 0.600000 0.900000
vt 0.700000 0.900000
vt 0.800000 0.900000
vt 0.900000 0.900000
vt 1.000000 0.900000
vt 0.050000 0.000000
vt 0.150000 0.000000
vt 0.250000 0.000000
vt 0.350000 0.000000
vt 0.450000 0.000000
vt 0.550000 0.000000
vt 0.650000 0.000000
vt 0.750000 0.000000
vt 0.850000 0.000000
vt 0.950000 0.000000
vt 0.050000 1.000000
vt 0.150000 1.000000
vt 0.250000 1.000000
vt 0.350000 1.000000
vt 0.450000 1.000000
vt 0.550000 1.000000
vt 0.650000 1.000000
vt 0.750000 1.000000
vt 0.850000 1.000000
vt 0.950000 1.000000
vt 0.100000 0.553795
vt 1.000000 0.553795
vt 0.000000 0.553795
vt 0.900000 0.553795
vt 0.800000 0.553795
vt 0.700000 0.553795
vt 0.600000 0.553795
vt 0.500000 0.553795
vt 0.400000 0.553795
vt 0.300000 0.553795
vt 0.200000 0.553795
vt 0.100000 0.447666
vt 1.000000 0.447666
vt 0.000000 0.447666
vt 0.900000 0.447666
vt 0.800000 0.447666
vt 0.700000 0.447666
vt 0.600000 0.447666
vt 0.500000 0.447666
vt 0.400000 0.447666
vt 0.300000 0.447666
vt 0.200000 0.447666
vn 0.278942 0.381896 -0.881105
vn 0.278942 0.381896 -0.881105
vn 0.278942 0.381896 -0.881105
vn 0.278942 0.381896 -0.881105
vn -0.000000 0.472244 -0.881468
vn -0.000000 0.472244 -0.881468
vn -0.000000 0.472244 -0.881468
vn -0.000000 0.472244 -0.881468
vn -0.278942 0.381896 -0.881105
vn -0.278942 0.381896 -0.881105
vn -0.278942 0.381896 -0.881105
vn -0.278942 0.381896 -0.881105
vn -0.451038 0.145775 -0.880519
vn -0.451038 0.145775 -0.880519
vn -0.451038 0.145775 -0.880519
vn -0.451038 0.145775 -0.880519
vn -0.451038 -0.145775 -0.880519
vn -0.451038 -0.145775 -0.880519
vn -0.451038 -0.145775 -0.880519
vn -0.451038 -0.145775 -0.880519
vn -0.278942 -0.381896 -0.881105
vn -0.278942 -0.381896 -0.881105
vn -0.278942 -0.381896 -0.881105
vn -0.278942 -0.381896 -0.881105
vn 0.000000 -0.472244 -0.881468
vn 0.000000 -0.472244 -0.881468
vn 0.000000 -0.472244 -0.881468
vn 0.000000 -0.472244 -0.881468
vn 0.278943 -0.381896 -0.881105
vn 0.278943 -0.381896 -0.881105
vn 0.278943 -0.381896 -0.881105
vn 0.278943 -0.381896 -0.881105
vn 0.451038 -0.145774 -0.880519
vn 0.451038 -0.145774 -0.880519
vn 0.451038 -0.145774 -0.880519
vn 0.451038 -0.145774 -0.880519
vn 0.451038 0.145774 -0.880519
vn 0.451038 0.145774 -0.880519
vn 0.451038 0.145774 -0.880519
vn 0.451038 0.145774 -0.880519
vn 0.427775 0.585660 -0.688485
vn 0.427775 0.585660 -0.688485
vn 0.427775 0.585660 -0.688485
vn 0.427775 0.585660 -0.688485
vn -0.000000 0.724617 -0.689152
vn -0.000000 0.724617 -0.689152
vn -0.000000 0.724617 -0.689152
vn -0.000000 0.724617 -0.689152
vn -0.427775 0.585659 -0.688485
vn -0.427775 0.585659 -0.688485
vn -0.427775 0.585659 -0.688485
vn -0.427775 0.585659 -0.688485
vn -0.691073 0.223353 -0.687409
vn -0.691073 0.223353 -0.687409
vn -0.691073 0.223353 -0.687409
vn -0.691073 0.223353 -0.687409
vn -0.691073 -0.223353 -0.687409
vn -0.691073 -0.223353 -0.687409
vn -0.691073 -0.223353 -0.687409
vn -0.691073 -0.223353 -0.687409
vn -0.427775 -0.585660 -0.688485
vn -0.427775 -0.585660 -0.688485
vn -0.427775 -0.585660 -0.688485
vn -0.427775 -0.585660 -0.688485
vn 0.000000 -0.724617 -0.689152
vn 0.000000 -0.724617 -0.689152
vn 0.000000 -0.724617 -0.689152
vn 0.000000 -0.724617 -0.689152
vn 0.427775 -0.585660 -0.688485
vn 0.427775 -0.585660 -0.688485
vn 0.427775 -0.585660 -0.688485
vn 0.427775 -0.585660 -0.688485
vn 0.691073 -0.223353 -0.687409
vn 0.691073 -0.223353 -0.687409
vn 0.691073 -0.223353 -0.687409
vn 0.691073 -0.223353 -0.687409
vn 0.691073 0.223352 -0.687409
vn 0.691073 0.223352 -0.687409
vn 0.691073 0.223352 -0.687409
vn 0.691073 0.223352 -0.687409
vn 0.530977 0.726954 -0.435433
vn 0.530977 0.726954 -0.435433
vn 0.530977 0.726953 -0.435433
vn 0.530977 0.726953 -0.435433
vn -0.000000 0.899906 -0.436083
vn -0.000000 0.899906 -0.436083
vn -0.000000 0.899906 -0.436083
vn -0.000000 0.899906 -0.436083
vn -0.530978 0.726953 -0.435433
vn -0.530978 0.726953 -0.435433
vn -0.530978 0.726953 -0.435433
vn -0.530978 0.726953 -0.435433
vn -0.857075 0.277004 -0.434386
vn -0.857075 0.277004 -0.434386
vn -0.857075 0.277004 -0.434386
vn -0.857075 0.277004 -0.434386
vn -0.857075 -0.277004 -0.434386
vn -0.857075 -0.277004 -0.434386
vn -0.857075 -0.277004 -0.434386
vn -0.857075 -0.277004 -0.434386
vn -0.530978 -0.726953 -0.435433
vn -0.530978 -0.726953 -0.435433
vn -0.530978 -0.726953 -0.435433
vn -0.530978 -0.726953 -0.435433
vn 0.000000 -0.899906 -0.436083
vn 0.000000 -0.899906 -0.436083
vn 0.000000 -0.899906 -0.436083
vn 0.000000 -0.899906 -0.436083
vn 0.530978 -0.726953 -0.435433
vn 0.530978 -0.726953 -0.435433
vn 0.530978 -0.726953 -0.435432
vn 0.530978 -0.726953 -0.435432
vn 0.857075 -0.277004 -0.434386
vn 0.857075 -0.277004 -0.434386
vn 0.857075 -0.277004 -0.434386
vn 0.857075 -0.277004 -0.434386
vn 0.857075 0.277004 -0.434386
vn 0.857075 0.277004 -0.434386
vn 0.857075 0.277004 -0.434386
vn 0.857075 0.277004 -0.434386
vn 0.585019 0.810980 -0.008033
vn 0.585019 0.810980 -0.008033
vn 0.582720 0.812666 -0.003273
vn 0.582705 0.812678 -0.003240
vn -0.000000 1.000000 0.000529
vn -0.000000 1.000000 0.000529
vn -0.000000 1.000000 0.000529
vn -0.000000 1.000000 0.000529
vn -0.585019 0.810979 -0.008033
vn -0.585019 0.810979 -0.008033
vn -0.582705 0.812678 -0.003240
vn -0.582720 0.812666 -0.003273
vn -0.950175 0.310942 -0.021973
vn -0.950175 0.310942 -0.021973
vn -0.949804 0.312704 -0.009444
vn -0.949806 0.312697 -0.009498
vn -0.950175 -0.310943 -0.021973
vn -0.950175 -0.310943 -0.021973
vn -0.949805 -0.312697 -0.009498
vn -0.949804 -0.312704 -0.009444
vn -0.585019 -0.810980 -0.008033
vn -0.585019 -0.810980 -0.008033
vn -0.582720 -0.812666 -0.003273
vn -0.582704 -0.812678 -0.003240
vn 0.000000 -1.000000 0.000529
vn 0.000000 -1.000000 0.000529
vn 0.000000 -1.000000 0.000529
vn 0.000000 -1.000000 0.000529
vn 0.585020 -0.810979 -0.008033
vn 0.585019 -0.810979 -0.008033
vn 0.582705 -0.812678 -0.003240
vn 0.582720 -0.812666 -0.003273
vn 0.950175 -0.310943 -0.021973
vn 0.950175 -0.310943 -0.021973
vn 0.949804 -0.312704 -0.009444
vn 0.949805 -0.312697 -0.009498
vn 0.950175 0.310942 -0.021973
vn 0.950175 0.310942 -0.021973
vn 0.949806 0.312697 -0.009498
vn 0.949804 0.312704 -0.009444
vn 0.580761 0.814074 -0.000849
vn 0.580761 0.814074 -0.000849
vn 0.582801 0.812608 0.003449
vn 0.582784 0.812620 0.003413
vn -0.000000 1.000000 -0.000557
vn -0.000000 1.000000 -0.000557
vn -0.000000 1.000000 -0.000557
vn -0.000000 1.000000 -0.000557
vn -0.580762 0.814073 -0.000849
vn -0.580762 0.814073 -0.000849
vn -0.582784 0.812620 0.003413
vn -0.582801 0.812607 0.003449
vn -0.949372 0.314152 -0.001330
vn -0.949372 0.314152 -0.001330
vn -0.949818 0.312644 0.009948
vn -0.949820 0.312636 0.010007
vn -0.949372 -0.314152 -0.001330
vn -0.949372 -0.314152 -0.001330
vn -0.949820 -0.312636 0.010007
vn -0.949818 -0.312644 0.009948
vn -0.580761 -0.814074 -0.000849
vn -0.580761 -0.814074 -0.000849
vn -0.582801 -0.812608 0.003449
vn -0.582784 -0.812620 0.003413
vn 0.000000 -1.000000 -0.000557
vn 0.000000 -1.000000 -0.000557
vn 0.000000 -1.000000 -0.000557
vn 0.000000 -1.000000 -0.000557
vn 0.580761 -0.814073 -0.000849
vn 0.580761 -0.814073 -0.000849
vn 0.582784 -0.812620 0.003413
vn 0.582801 -0.812608 0.003449
vn 0.949372 -0.314152 -0.001330
vn 0.949372 -0.314152 -0.001330
vn 0.949818 -0.312644 0.009948
vn 0.949820 -0.312636 0.010007
vn 0.949372 0.314151 -0.001330
vn 0.949372 0.314151 -0.001330
vn 0.949820 0.312636 0.010007
vn 0.949818 0.312644 0.009948
vn 0.530977 0.726953 0.435433
vn 0.530977 0.726953 0.435433
vn 0.530977 0.726953 0.435433
vn 0.530977 0.726953 0.435433
vn -0.000000 0.899906 0.436083
vn -0.000000 0.899906 0.436083
vn -0.000000 0.899906 0.436083
vn -0.000000 0.899906 0.436083
vn -0.530977 0.726953 0.435433
vn -0.530977 0.726953 0.435433
vn -0.530977 0.726953 0.435433
vn -0.530977 0.726953 0.435433
vn -0.857075 0.277004 0.434386
vn -0.857075 0.277004 0.434386
vn -0.857075 0.277004 0.434386
vn -0.857075 0.277004 0.434386
vn -0.857075 -0.277004 0.434386
vn -0.857075 -0.277004 0.434386
vn -0.857075 -0.277004 0.434386
vn -0.857075 -0.277004 0.434386
vn -0.530978 -0.726953 0.435433
vn -0.530978 -0.726953 0.435433
vn -0.530978 -0.726953 0.435433
vn -0.530978 -0.726953 0.435433
vn 0.000000 -0.899906 0.436083
vn 0.000000 -0.899906 0.436083
vn 0.000000 -0.899906 0.436083
vn 0.000000 -0.899906 0.436083
vn 0.530978 -0.726953 0.435433
vn 0.530978 -0.726953 0.435433
vn 0.530978 -0.726953 0.435433
vn 0.530978 -0.726953 0.435433
vn 0.857075 -0.277004 0.434386
vn 0.857075 -0.277004 0.434386
vn 0.857075 -0.277004 0.434386
vn 0.857075 -0.277004 0.434386
vn 0.857075 0.277004 0.434386
vn 0.857075 0.277004 0.434386
vn 0.857075 0.277004 0.434386
vn 0.857075 0.277004 0.434386
vn 0.427775 0.585660 0.688485
vn 0.427775 0.585660 0.688485
vn 0.427775 0.585660 0.688485
vn 0.427775 0.585660 0.688485
vn -0.000000 0.724617 0.689152
vn -0.000000 0.724617 0.689152
vn -0.000000 0.724617 0.689152
vn -0.000000 0.724617 0.689152
vn -0.427775 0.585660 0.688485
vn -0.427775 0.585660 0.688485
vn -0.427775 0.585660 0.688485
vn -0.427775 0.585660 0.688485
vn -0.691073 0.223353 0.687409
vn -0.691073 0.223353 0.687409
vn -0.691073 0.223353 0.687409
vn -0.691073 0.223353 0.687409
vn -0.691073 -0.223353 0.687409
vn -0.691073 -0.223353 0.687409
vn -0.691073 -0.223353 0.687409
vn -0.691073 -0.223353 0.687409
vn -0.427775 -0.585660 0.688485
vn -0.427775 -0.585660 0.688485
vn -0.427775 -0.585660 0.688485
vn -0.427775 -0.585660 0.688485
vn 0.000000 -0.724617 0.689152
vn 0.000000 -0.724617 0.689152
vn 0.000000 -0.724617 0.689152
vn 0.000000 -0.724617 0.689152
vn 0.427775 -0.585660 0.688485
vn 0.427775 -0.585660 0.688485
vn 0.427775 -0.585660 0.688485
vn 0.427775 -0.585660 0.688485
vn 0.691073 -0.223353 0.687409
vn 0.691073 -0.223353 0.687409
vn 0.691073 -0.223353 0.687409
vn 0.691073 -0.223353 0.687409
vn 0.691073 0.223353 0.687409
vn 0.691073 0.223353 0.687409
vn 0.691073 0.223353 0.687409
vn 0.691073 0.223353 0.687409
vn 0.278943 0.381895 0.881106
vn 0.278943 0.381895 0.881106
vn 0.278943 0.381895 0.881106
vn 0.278943 0.381895 0.881106
vn -0.000000 0.472244 0.881468
vn -0.000000 0.472244 0.881468
vn -0.000000 0.472244 0.881468
vn -0.000000 0.472244 0.881468
vn -0.278942 0.381896 0.881105
vn -0.278942 0.381896 0.881105
vn -0.278942 0.381896 0.881105
vn -0.278942 0.381896 0.881105
vn -0.451038 0.145774 0.880519
vn -0.451038 0.145774 0.880519
vn -0.451038 0.145774 0.880519
vn -0.451038 0.145774 0.880519
vn -0.451038 -0.145775 0.880519
vn -0.451038 -0.145775 0.880519
vn -0.451038 -0.145775 0.880519
vn -0.451038 -0.145775 0.880519
vn -0.278943 -0.381895 0.881106
vn -0.278942 -0.381895 0.881106
vn -0.278943 -0.381895 0.881106
vn -0.278942 -0.381895 0.881106
vn 0.000000 -0.472244 0.881468
vn 0.000000 -0.472244 0.881468
vn 0.000000 -0.472244 0.881468
vn 0.000000 -0.472244 0.881468
vn 0.278943 -0.381896 0.881105
vn 0.278943 -0.381896 0.881105
vn 0.278943 -0.381895 0.881105
vn 0.278943 -0.381896 0.881105
vn 0.451038 -0.145775 0.880519
vn 0.451038 -0.145775 0.880519
vn 0.451038 -0.145775 0.880519
vn 0.451038 -0.145775 0.880519
vn 0.451038 0.145775 0.880519
vn 0.451038 0.145775 0.880519
vn 0.451038 0.145775 0.880519
vn 0.451038 0.145775 0.880519
vn 0.097067 0.132893 -0.986366
vn 0.097067 0.132893 -0.986366
vn 0.097067 0.132893 -0.986366
vn -0.000000 0.164273 -0.986415
vn -0.000000 0.164273 -0.986415
vn -0.000000 0.164273 -0.986415
vn -0.097067 0.132895 -0.986365
vn -0.097067 0.132895 -0.986365
vn -0.097067 0.132895 -0.986365
vn -0.157045 0.050755 -0.986286
vn -0.157045 0.050756 -0.986286
vn -0.157045 0.050755 -0.986286
vn -0.157045 -0.050758 -0.986286
vn -0.157045 -0.050758 -0.986286
vn -0.157045 -0.050758 -0.986286
vn -0.097067 -0.132892 -0.986366
vn -0.097067 -0.132892 -0.986366
vn -0.097067 -0.132893 -0.986366
vn 0.000000 -0.164273 -0.986415
vn 0.000000 -0.164273 -0.986415
vn 0.000000 -0.164273 -0.986415
vn 0.097067 -0.132892 -0.986366
vn 0.097067 -0.132893 -0.986366
vn 0.097067 -0.132892 -0.986366
vn 0.157045 -0.050756 -0.986286
vn 0.157045 -0.050755 -0.986286
vn 0.157045 -0.050755 -0.986286
vn 0.157045 0.050758 -0.986286
vn 0.157045 0.050758 -0.986286
vn 0.157045 0.050758 -0.986286
vn 0.097067 0.132892 0.986366
vn 0.097067 0.132892 0.986366
vn 0.097067 0.132892 0.986366
vn -0.000000 0.164273 0.986415
vn -0.000000 0.164273 0.986415
vn -0.000000 0.164273 0.986415
vn -0.097067 0.132893 0.986366
vn -0.097067 0.132893 0.986366
vn -0.097067 0.132893 0.986366
vn -0.157045 0.050758 0.986286
vn -0.157045 0.050758 0.986286
vn -0.157045 0.050758 0.986286
vn -0.157045 -0.050758 0.986286
vn -0.157045 -0.050758 0.986286
vn -0.157045 -0.050758 0.986286
vn -0.097067 -0.132892 0.986366
vn -0.097067 -0.132892 0.986366
vn -0.097067 -0.132892 0.986366
vn 0.000000 -0.164273 0.986415
vn 0.000000 -0.164273 0.986415
vn 0.000000 -0.164273 0.986415
vn 0.097067 -0.132893 0.986366
vn 0.097067 -0.132893 0.986366
vn 0.097067 -0.132893 0.986366
vn 0.157045 -0.050758 0.986286
vn 0.157045 -0.050758 0.986286
vn 0.157045 -0.050758 0.986286
vn 0.157045 0.050758 0.986286
vn 0.157045 0.050758 0.986286
vn 0.157045 0.050758 0.986286
vn 0.585163 0.810871 0.008465
vn 0.585163 0.810871 0.008465
vn 0.950184 0.310828 0.023148
vn 0.950184 0.310827 0.023148
vn 0.950184 -0.310828 0.023148
vn 0.950184 -0.310828 0.023148
vn 0.585163 -0.810871 0.008465
vn 0.585163 -0.810871 0.008465
vn 0.000000 -1.000000 -0.000557
vn 0.000000 -1.000000 -0.000557
vn -0.585163 -0.810871 0.008465
vn -0.585163 -0.810871 0.008465
vn -0.950184 -0.310828 0.023148
vn -0.950184 -0.310828 0.023148
vn -0.950184 0.310828 0.023148
vn -0.950184 0.310828 0.023148
vn -0.585163 0.810871 0.008465
vn -0.585163 0.810871 0.008465
vn -0.000000 1.000000 -0.000557
vn -0.000000 1.000000 -0.000557
vn 0.580617 0.814176 0.001051
vn 0.580617 0.814176 0.001051
vn 0.949336 0.314258 0.001910
vn 0.949336 0.314258 0.001910
vn 0.949336 -0.314258 0.001910
vn 0.949336 -0.314258 0.001910
vn 0.580617 -0.814176 0.001051
vn 0.580617 -0.814176 0.001051
vn 0.000000 -1.000000 0.000529
vn 0.000000 -1.000000 0.000529
vn -0.580617 -0.814176 0.001051
vn -0.580617 -0.814176 0.001051
vn -0.949336 -0.314258 0.001910
vn -0.949336 -0.314258 0.001910
vn -0.949336 0.314258 0.001910
vn -0.949336 0.314258 0.001910
vn -0.580617 0.814176 0.001051
vn -0.580617 0.814176 0.001051
vn -0.000000 1.000000 0.000529
vn -0.000000 1.000000 0.000529
s off
g pSphere1
usemtl initialShadingGroup
f 1/1/1 2/2/2 12/13/3 11/12/4
f 2/2/5 3/3/6 13/14/7 12/13/8
f 3/3/9 4/4/10 14/15/11 13/14/12
f 4/4/13 5/5/14 15/16/15 14/15/16
f 5/5/17 6/6/18 16/17/19 15/16/20
f 6/6/21 7/7/22 17/18/23 16/17/24
f 7/7/25 8/8/26 18/19/27 17/18/28
f 8/8/29 9/9/30 19/20/31 18/19/32
f 9/9/33 10/10/34 20/21/35 19/20/36
f 10/10/37 1/11/38 11/22/39 20/21/40
f 11/12/41 12/13/42 22/24/43 21/23/44
f 12/13/45 13/14/46 23/25/47 22/24/48
f 13/14/49 14/15/50 24/26/51 23/25/52
f 14/15/53 15/16/54 25/27/55 24/26/56
f 15/16/57 16/17/58 26/28/59 25/27/60
f 16/17/61 17/18/62 27/29/63 26/28/64
f 17/18/65 18/19/66 28/30/67 27/29/68
f 18/19/69 19/20/70 29/31/71 28/30/72
f 19/20/73 20/21/74 30/32/75 29/31/76
f 20/21/77 11/22/78 21/33/79 30/32/80
f 21/23/81 22/24/82 32/35/83 31/34/84
f 22/24/85 23/25/86 33/36/87 32/35/88
f 23/25/89 24/26/90 34/37/91 33/36/92
f 24/26/93 25/27/94 35/38/95 34/37/96
f 25/27/97 26/28/98 36/39/99 35/38/100
f 26/28/101 27/29/102 37/40/103 36/39/104
f 27/29/105 28/30/106 38/41/107 37/40/108
f 28/30/109 29/31/110 39/42/111 38/41/112
f 29/31/113 30/32/114 40/43/115 39/42/116
f 30/32/117 21/33/118 31/44/119 40/43/120
s 1
f 31/34/121 32/35/122 103/131/123 104/133/124
s 2
f 32/35/125 33/36/126 112/141/127 103/131/128
s 3
f 33/36/129 34/37/130 111/140/131 112/141/132
s 4
f 34/37/133 35/38/134 110/139/135 111/140/136
s 5
f 35/38/137 36/39/138 109/138/139 110/139/140
s 6
f 36/39/141 37/40/142 108/137/143 109/138/144
s 7
f 37/40/145 38/41/146 107/136/147 108/137/148
s 8
f 38/41/149 39/42/150 106/135/151 107/136/152
s 9
f 39/42/153 40/43/154 105/134/155 106/135/156
s 10
f 40/43/157 31/44/158 104/132/159 105/134/160
s 11
f 41/45/161 42/46/162 93/120/163 94/122/164
s 12
f 42/46/165 43/47/166 102/130/167 93/120/168
s 13
f 43/47/169 44/48/170 101/129/171 102/130/172
s 14
f 44/48/173 45/49/174 100/128/175 101/129/176
s 15
f 45/49/177 46/50/178 99/127/179 100/128/180
s 16
f 46/50/181 47/51/182 98/126/183 99/127/184
s 17
f 47/51/185 48/52/186 97/125/187 98/126/188
s 18
f 48/52/189 49/53/190 96/124/191 97/125/192
s 19
f 49/53/193 50/54/194 95/123/195 96/124/196
s 20
f 50/54/197 41/55/198 94/121/199 95/123/200
s off
f 51/56/201 52/57/202 62/68/203 61/67/204
f 52/57/205 53/58/206 63/69/207 62/68/208
f 53/58/209 54/59/210 64/70/211 63/69/212
f 54/59/213 55/60/214 65/71/215 64/70/216
f 55/60/217 56/61/218 66/72/219 65/71/220
f 56/61/221 57/62/222 67/73/223 66/72/224
f 57/62/225 58/63/226 68/74/227 67/73/228
f 58/63/229 59/64/230 69/75/231 68/74/232
f 59/64/233 60/65/234 70/76/235 69/75/236
f 60/65/237 51/66/238 61/77/239 70/76/240
f 61/67/241 62/68/242 72/79/243 71/78/244
f 62/68/245 63/69/246 73/80/247 72/79/248
f 63/69/249 64/70/250 74/81/251 73/80/252
f 64/70/253 65/71/254 75/82/255 74/81/256
f 65/71/257 66/72/258 76/83/259 75/82/260
f 66/72/261 67/73/262 77/84/263 76/83/264
f 67/73/265 68/74/266 78/85/267 77/84/268
f 68/74/269 69/75/270 79/86/271 78/85/272
f 69/75/273 70/76/274 80/87/275 79/86/276
f 70/76/277 61/77/278 71/88/279 80/87/280
f 71/78/281 72/79/282 82/90/283 81/89/284
f 72/79/285 73/80/286 83/91/287 82/90/288
f 73/80/289 74/81/290 84/92/291 83/91/292
f 74/81/293 75/82/294 85/93/295 84/92/296
f 75/82/297 76/83/298 86/94/299 85/93/300
f 76/83/301 77/84/302 87/95/303 86/94/304
f 77/84/305 78/85/306 88/96/307 87/95/308
f 78/85/309 79/86/310 89/97/311 88/96/312
f 79/86/313 80/87/314 90/98/315 89/97/316
f 80/87/317 71/88/318 81/99/319 90/98/320
f 2/2/321 1/1/322 91/100/323
f 3/3/324 2/2/325 91/101/326
f 4/4/327 3/3/328 91/102/329
f 5/5/330 4/4/331 91/103/332
f 6/6/333 5/5/334 91/104/335
f 7/7/336 6/6/337 91/105/338
f 8/8/339 7/7/340 91/106/341
f 9/9/342 8/8/343 91/107/344
f 10/10/345 9/9/346 91/108/347
f 1/11/348 10/10/349 91/109/350
f 81/89/351 82/90/352 92/110/353
f 82/90/354 83/91/355 92/111/356
f 83/91/357 84/92/358 92/112/359
f 84/92/360 85/93/361 92/113/362
f 85/93/363 86/94/364 92/114/365
f 86/94/366 87/95/367 92/115/368
f 87/95/369 88/96/370 92/116/371
f 88/96/372 89/97/373 92/117/374
f 89/97/375 90/98/376 92/118/377
f 90/98/378 81/99/379 92/119/380
s 11
f 94/122/164 93/120/163 52/57/381 51/56/382
s 20
f 95/123/200 94/121/199 51/66/383 60/65/384
s 19
f 96/124/196 95/123/195 60/65/385 59/64/386
s 18
f 97/125/192 96/124/191 59/64/387 58/63/388
s 17
f 98/126/188 97/125/187 58/63/389 57/62/390
s 16
f 99/127/184 98/126/183 57/62/391 56/61/392
s 15
f 100/128/180 99/127/179 56/61/393 55/60/394
s 14
f 101/129/176 100/128/175 55/60/395 54/59/396
s 13
f 102/130/172 101/129/171 54/59/397 53/58/398
s 12
f 93/120/168 102/130/167 53/58/399 52/57/400
s 1
f 104/133/124 103/131/123 42/46/401 41/45/402
s 10
f 105/134/160 104/132/159 41/55/403 50/54/404
s 9
f 106/135/156 105/134/155 50/54/405 49/53/406
s 8
f 107/136/152 106/135/151 49/53/407 48/52/408
s 7
f 108/137/148 107/136/147 48/52/409 47/51/410
s 6
f 109/138/144 108/137/143 47/51/411 46/50/412
s 5
f 110/139/140 109/138/139 46/50/413 45/49/414
s 4
f 111/140/136 110/139/135 45/49/415 44/48/416
s 3
f 112/141/132 111/140/131 44/48/417 43/47/418
s 2
f 103/131/128 112/141/127 43/47/419 42/46/420
