# This file uses centimeters as units for non-parametric coordinates.

mtllib outdoor.mtl
g default
v 0.091055 6.494227 -4.605559
v 0.091055 6.494227 4.665016
v 0.091055 4.576106 4.665017
v 0.091055 4.576106 -4.605559
v 0.557100 6.848525 -5.085070
v 0.557099 6.848526 5.144524
v 0.557100 4.576106 5.144524
v 0.557100 4.576106 -5.085068
v 0.283584 7.524922 -5.510449
v 0.283584 7.524924 5.510445
v 0.283584 4.540146 5.510449
v 0.283584 4.540146 -5.510446
v 0.000000 7.891851 -5.866962
v 0.000000 7.891851 5.866964
v 0.000000 4.529287 5.866961
v 0.000000 4.529287 -5.866961
v 0.091055 1.872149 4.665016
v 0.091055 1.872149 -4.605559
v 0.557100 1.517848 -5.085070
v 0.557099 1.517846 5.144524
v 0.283584 0.841452 -5.510449
v 0.283584 0.841450 5.510445
v 0.000000 0.474522 -5.866962
v 0.000000 0.474521 5.866964
v 0.000000 0.474522 0.153516
v 0.283584 0.841451 0.144187
v 0.557100 1.517848 0.163562
v 0.091055 1.872149 0.151014
v 0.091055 4.564152 0.146642
v 0.091055 6.494227 0.151014
v 0.557100 6.848526 0.163562
v 0.283584 7.524923 0.144187
v 0.000000 7.891851 0.153516
v -0.500000 0.045079 7.557160
v 0.500000 0.045079 7.557160
v -0.500000 0.497313 7.557160
v 0.500000 0.497313 7.557160
v -0.500000 0.497313 -7.557160
v 0.500000 0.497313 -7.557160
v -0.500000 0.045079 -7.557160
v 0.500000 0.045079 -7.557160
vt 0.083470 0.462956
vt 0.481885 0.462956
vt 0.481885 0.476545
vt 0.060718 0.476545
vt 0.083470 0.246029
vt 0.060718 0.246029
vt 0.899194 0.462956
vt 0.899194 0.246029
vt 0.925332 0.246029
vt 0.925332 0.476545
vt 0.481885 0.496448
vt 0.036080 0.496448
vt 0.036079 0.246029
vt 0.952633 0.246029
vt 0.952634 0.496448
vt 0.481885 0.517927
vt 0.000000 0.517927
vt 0.000000 0.246029
vt 1.000000 0.246029
vt 1.000000 0.517927
vt 0.481885 0.258701
vt 0.481885 0.488853
vt 0.047408 0.488853
vt 0.047408 0.258701
vt 0.083470 0.060772
vt 0.060718 0.043797
vt 0.481885 0.043797
vt 0.481885 0.060772
vt 0.899194 0.060772
vt 0.925332 0.043797
vt 0.036080 0.022765
vt 0.481885 0.022765
vt 0.952634 0.022765
vt -0.000000 0.001286
vt 0.481885 0.001286
vt 1.000000 0.001286
vt 0.047408 0.032616
vt 0.481885 0.032616
vt 0.939710 0.258701
vt 0.939710 0.032616
vt 0.939710 0.488853
vt 1.326202 0.000000
vt 1.576202 0.000000
vt 1.576202 0.250000
vt 1.326202 0.250000
vt 1.576202 0.500000
vt 1.326202 0.500000
vt 1.576202 0.750000
vt 1.326202 0.750000
vt 1.576202 1.000000
vt 1.326202 1.000000
vt 1.826202 0.000000
vt 1.826202 0.250000
vt 1.076202 0.000000
vt 1.076202 0.250000
vn 0.605197 -0.796076 0.000000
vn 0.605197 -0.796076 0.000000
vn 0.605197 -0.796076 0.000000
vn 0.605197 -0.796076 0.000000
vn 0.717103 0.000000 -0.696968
vn 0.717103 0.000000 -0.696968
vn 0.717103 0.000000 -0.696968
vn 0.717103 0.000000 -0.696968
vn 0.717103 0.000000 0.696967
vn 0.717103 0.000000 0.696967
vn 0.717103 0.000000 0.696967
vn 0.717103 0.000000 0.696967
vn 0.927073 0.374881 0.000000
vn 0.927073 0.374882 0.000000
vn 0.927073 0.374882 0.000000
vn 0.927073 0.374881 0.000000
vn 0.800972 0.000001 0.598701
vn 0.800972 0.000001 0.598701
vn 0.800972 0.000001 0.598701
vn 0.800972 0.000001 0.598701
vn 0.841125 0.000000 -0.540840
vn 0.841125 0.000000 -0.540840
vn 0.841125 0.000000 -0.540840
vn 0.841125 0.000000 -0.540840
vn 0.791234 0.611513 0.000000
vn 0.791235 0.611512 0.000000
vn 0.791235 0.611513 0.000000
vn 0.791234 0.611513 0.000000
vn 0.782609 0.000000 0.622513
vn 0.782609 0.000000 0.622513
vn 0.782609 0.000000 0.622513
vn 0.782609 0.000000 0.622513
vn 0.782608 0.000000 -0.622515
vn 0.782608 0.000000 -0.622515
vn 0.782608 0.000000 -0.622515
vn 0.782608 0.000000 -0.622515
vn 1.000000 0.000000 0.000000
vn 1.000000 0.000000 0.000000
vn 1.000000 0.000000 0.000000
vn 1.000000 0.000000 0.000000
vn 0.605200 0.796073 0.000000
vn 0.605200 0.796073 0.000000
vn 0.605199 0.796074 0.000000
vn 0.605199 0.796074 0.000000
vn 0.717102 0.000000 -0.696968
vn 0.717102 0.000000 -0.696968
vn 0.717102 0.000000 -0.696968
vn 0.717102 0.000000 -0.696968
vn 0.717103 0.000000 0.696967
vn 0.717103 0.000000 0.696967
vn 0.717103 0.000000 0.696967
vn 0.717103 0.000000 0.696967
vn 0.927073 -0.374881 0.000000
vn 0.927073 -0.374881 0.000000
vn 0.927073 -0.374882 0.000000
vn 0.927073 -0.374882 0.000000
vn 0.800973 -0.000001 0.598701
vn 0.800973 -0.000001 0.598700
vn 0.800973 -0.000001 0.598700
vn 0.800973 -0.000001 0.598701
vn 0.841126 0.000000 -0.540840
vn 0.841126 0.000000 -0.540840
vn 0.841126 0.000000 -0.540840
vn 0.841126 0.000000 -0.540840
vn 0.791234 -0.611513 0.000000
vn 0.791234 -0.611513 0.000000
vn 0.791235 -0.611513 0.000000
vn 0.791235 -0.611513 0.000000
vn 0.782609 0.000000 0.622513
vn 0.782609 0.000000 0.622513
vn 0.782609 0.000000 0.622513
vn 0.782609 0.000000 0.622513
vn 0.782608 0.000000 -0.622514
vn 0.782608 0.000000 -0.622515
vn 0.782608 0.000000 -0.622514
vn 0.782608 0.000000 -0.622514
vn 1.000000 0.000000 0.000000
vn 1.000000 0.000000 0.000000
vn 1.000000 0.000000 0.000000
vn 1.000000 0.000000 0.000000
vn 0.791235 -0.611513 0.000000
vn 0.791235 -0.611513 0.000000
vn 0.791235 -0.611512 0.000000
vn 0.791235 -0.611512 0.000000
vn 0.927073 -0.374882 0.000000
vn 0.927073 -0.374882 0.000000
vn 0.927072 -0.374882 0.000000
vn 0.927072 -0.374882 0.000000
vn 0.605199 0.796074 0.000000
vn 0.605199 0.796074 0.000000
vn 0.605198 0.796075 0.000000
vn 0.605198 0.796075 0.000000
vn 1.000000 0.000000 0.000000
vn 1.000000 0.000000 0.000000
vn 1.000000 0.000000 0.000000
vn 1.000000 0.000000 0.000000
vn 1.000000 0.000000 0.000000
vn 1.000000 0.000000 0.000000
vn 1.000000 0.000000 0.000000
vn 1.000000 0.000000 0.000000
vn 0.605197 -0.796076 0.000000
vn 0.605197 -0.796076 0.000000
vn 0.605196 -0.796077 0.000000
vn 0.605196 -0.796077 0.000000
vn 0.927073 0.374882 0.000000
vn 0.927073 0.374882 0.000000
vn 0.927072 0.374883 0.000000
vn 0.927072 0.374883 0.000000
vn 0.791235 0.611513 0.000000
vn 0.791235 0.611512 0.000000
vn 0.791235 0.611512 0.000000
vn 0.791235 0.611512 0.000000
vn 0.000000 0.000000 1.000000
vn 0.000000 0.000000 1.000000
vn 0.000000 0.000000 1.000000
vn 0.000000 0.000000 1.000000
vn 0.000000 1.000000 0.000000
vn 0.000000 1.000000 0.000000
vn 0.000000 1.000000 0.000000
vn 0.000000 1.000000 0.000000
vn 0.000000 0.000000 -1.000000
vn 0.000000 0.000000 -1.000000
vn 0.000000 0.000000 -1.000000
vn 0.000000 0.000000 -1.000000
vn 0.000000 -1.000000 0.000000
vn 0.000000 -1.000000 0.000000
vn 0.000000 -1.000000 0.000000
vn 0.000000 -1.000000 0.000000
vn 1.000000 0.000000 0.000000
vn 1.000000 0.000000 0.000000
vn 1.000000 0.000000 0.000000
vn 1.000000 0.000000 0.000000
vn -1.000000 0.000000 0.000000
vn -1.000000 0.000000 0.000000
vn -1.000000 0.000000 0.000000
vn -1.000000 0.000000 0.000000
s off
g pTorus10
usemtl lambert2SG
f 2/1/1 30/2/2 31/3/3 6/4/4
f 3/5/5 2/1/6 6/4/7 7/6/8
f 1/7/9 4/8/10 8/9/11 5/10/12
f 6/4/13 31/3/14 32/11/15 10/12/16
f 7/6/17 6/4/18 10/12/19 11/13/20
f 5/10/21 8/9/22 12/14/23 9/15/24
f 10/12/25 32/11/26 33/16/27 14/17/28
f 11/13/29 10/12/30 14/17/31 15/18/32
f 9/15/33 12/14/34 16/19/35 13/20/36
f 29/21/37 30/22/38 2/23/39 3/24/40
f 17/25/41 20/26/42 27/27/43 28/28/44
f 3/5/45 7/6/46 20/26/47 17/25/48
f 18/29/49 19/30/50 8/9/51 4/8/52
f 20/26/53 22/31/54 26/32/55 27/27/56
f 7/6/57 11/13/58 22/31/59 20/26/60
f 19/30/61 21/33/62 12/14/63 8/9/64
f 22/31/65 24/34/66 25/35/67 26/32/68
f 11/13/69 15/18/70 24/34/71 22/31/72
f 21/33/73 23/36/74 16/19/75 12/14/76
f 29/21/77 3/24/78 17/37/79 28/38/80
f 26/32/81 25/35/82 23/36/83 21/33/84
f 27/27/85 26/32/86 21/33/87 19/30/88
f 28/28/89 27/27/90 19/30/91 18/29/92
f 4/39/93 29/21/94 28/38/95 18/40/96
f 4/39/97 1/41/98 30/22/99 29/21/100
f 31/3/101 30/2/102 1/7/103 5/10/104
f 32/11/105 31/3/106 5/10/107 9/15/108
f 33/16/109 32/11/110 9/15/111 13/20/112
f 34/42/113 35/43/114 37/44/115 36/45/116
f 36/45/117 37/44/118 39/46/119 38/47/120
f 38/47/121 39/46/122 41/48/123 40/49/124
f 40/49/125 41/48/126 35/50/127 34/51/128
f 35/43/129 41/52/130 39/53/131 37/44/132
f 40/54/133 34/42/134 36/45/135 38/55/136
